<svg xmlns="http://www.w3.org/2000/svg" fill="none" viewBox="0 0 48 48"><path stroke-linejoin="round" stroke-linecap="round" stroke-width="4" stroke="#333" d="M13 12.432v-4.62A2.813 2.813 0 0 1 15.813 5h24.374A2.813 2.813 0 0 1 43 7.813v24.375A2.813 2.813 0 0 1 40.187 35h-4.67" data-follow-stroke="#333"/><path stroke-linejoin="round" stroke-width="4" stroke="#333" d="M32.188 13H7.811A2.813 2.813 0 0 0 5 15.813v24.374A2.813 2.813 0 0 0 7.813 43h24.375A2.813 2.813 0 0 0 35 40.187V15.814A2.813 2.813 0 0 0 32.187 13Z" data-follow-stroke="#333"/></svg>